<svg xmlns="http://www.w3.org/2000/svg" viewBox="0 0 1804 768"><style>.st0{fill:#fff}.st1{fill:#ccc}</style><path class="st0" d="M515.49 201.9L390.65 518.76h-45.63l-65.27-164.13-65.27 164.13h-45.63L42.73 201.9h46.89l102.03 256.66 64.64-162.23-37.39-94.42h46.9l102.03 256.66 101.4-256.66h46.26zM848.2 210.14v308.62h-43.73v-58.3c-29.78 41.83-70.34 61.47-116.6 61.47-88.72 0-159.7-70.98-159.7-159.07 0-88.72 70.98-159.7 159.7-159.7 68.44 0 103.93 38.66 116.6 58.94v-51.97h43.73zm-44.36 152.73c0-64.64-51.97-116.6-115.97-116.6-64.64 0-116.6 51.96-116.6 116.6 0 64.01 51.96 115.97 116.6 115.97 64.01 0 115.97-51.97 115.97-115.97zM1027.54 242.46c-39.92 0-72.88 32.95-72.88 72.88v203.43h-43.09V315.34c0-46.26 26.62-86.19 65.27-104.56l1.27-.63c15.21-6.97 31.68-10.77 49.43-10.77 27.25 0 51.97 8.87 72.25 24.72l-43.09 24.71c-8.88-3.82-18.38-6.35-29.16-6.35zM1156.83 653.74v-443.6h43.09v52.6c29.79-41.82 70.98-62.1 117.24-62.1 88.09 0 159.7 71.61 159.7 159.7s-71.61 159.7-159.7 159.7c-68.44 0-104.56-39.29-117.24-58.94v192.65h-43.09zm43.72-293.41c0 64.01 52.6 116.61 116.6 116.61 64.01 0 115.97-52.6 115.97-116.61 0-64.01-51.97-115.97-115.97-115.97s-116.6 51.97-116.6 115.97z"/><g><path class="st1" d="M1557.29 274.43c16.76 0 28.2-12.01 28.2-27.37V113.83h22.9v133.22c0 14.52-5.31 27.65-14.25 37.15-9.22 9.49-22.06 15.36-36.86 15.36v-25.13zM1729.33 153.22c-6.43-9.78-15.64-14.52-31.28-14.52-12.57 0-21.5 2.79-26.53 8.1-6.42 6.43-7.26 15.64-7.26 20.95 0 10.89 3.35 16.76 8.94 20.67s13.13 5.31 22.07 6.14c20.95 1.96 34.35 5.59 45.24 12.29 13.69 8.66 20.39 22.06 20.39 40.22 0 14.24-5.86 27.37-15.92 37.15-12.57 12.29-29.89 17.04-46.36 17.04-19.83 0-35.47-5.59-47.2-16.76-9.77-9.78-15.92-22.34-18.15-40.22l.56-.28h24.58c1.68 10.89 5.03 17.31 10.05 22.06 7.54 6.98 18.71 10.89 34.35 9.78 20.95-1.12 33.23-13.13 33.23-28.77 0-6.98-1.4-13.13-7.26-17.87-5.87-4.47-16.48-7.82-35.47-9.22-34.91-3.07-53.9-20.11-53.9-52.23 0-15.64 5.03-29.05 14.8-38.82 10.33-10.33 24.86-15.64 43.57-15.64 20.39 0 35.19 6.7 45.24 17.6s15.36 24.86 17.32 40.22h-25.14c-.85-6.44-2.52-12.59-5.87-17.89z"/></g></svg>
